<?xml version="1.0" encoding="UTF-8" standalone="no"?>
<!-- Created with Inkscape (http://www.inkscape.org/) -->

<svg
   width="254"
   height="213.49301"
   viewBox="0 0 67.204165 56.486694"
   version="1.1"
   id="svg5"
   inkscape:version="1.1.2 (b8e25be833, 2022-02-05)"
   sodipodi:docname="red-dog.svg"
   xmlns:inkscape="http://www.inkscape.org/namespaces/inkscape"
   xmlns:sodipodi="http://sodipodi.sourceforge.net/DTD/sodipodi-0.dtd"
   xmlns="http://www.w3.org/2000/svg"
   xmlns:svg="http://www.w3.org/2000/svg">
  <sodipodi:namedview
     id="namedview7"
     pagecolor="#ffffff"
     bordercolor="#666666"
     borderopacity="1.0"
     inkscape:pageshadow="2"
     inkscape:pageopacity="0.0"
     inkscape:pagecheckerboard="0"
     inkscape:document-units="px"
     showgrid="false"
     units="px"
     inkscape:zoom="1"
     inkscape:cx="-31.5"
     inkscape:cy="126"
     inkscape:window-width="1920"
     inkscape:window-height="1137"
     inkscape:window-x="-8"
     inkscape:window-y="-8"
     inkscape:window-maximized="1"
     inkscape:current-layer="layer1"
     fit-margin-top="2"
     fit-margin-left="2"
     fit-margin-bottom="2"
     fit-margin-right="2" />
  <defs
     id="defs2" />
  <g
     inkscape:label="Layer 1"
     inkscape:groupmode="layer"
     id="layer1"
     transform="translate(-70.988998,-87.704677)">
    <g
       id="g26144"
       transform="matrix(2.1985624,0,0,2.1985624,-43.254666,-148.21809)">
      <path
         id="path2403"
         style="fill:#e03547;fill-opacity:1;stroke:none;stroke-width:1.00012;stroke-linecap:butt;stroke-linejoin:miter;stroke-miterlimit:4;stroke-dasharray:none;stroke-opacity:1"
         d="m 69.101207,115.62033 c 0.0011,0.001 0.0021,0.002 0.0031,0.004 -5.29e-4,-0.002 -0.0013,-0.003 -0.0031,-0.004 z m 0.0031,0.004 c 0.04427,0.18327 -6.941698,6.44814 -10.754381,9.78648 -1.178468,1.03185 -1.220243,3.35391 -0.82114,3.53208 -2.016342,-0.86246 -3.902974,-2.82557 -3.312975,-5.51904 -2.614573,-0.41534 -2.316485,2.3587 -1.155485,4.36149 1.116123,1.90402 3.541625,2.84082 4.303611,2.63963 0.472173,-0.12466 -0.08526,0.29094 -0.08526,0.29094 0,0.0478 -0.726258,0.002 -1.062469,0 -0.563253,-0.003 -0.968616,0.64776 -0.965314,1.07073 0.0033,0.42299 0.309227,0.96435 0.923973,0.96635 5.513157,0.0183 15.942699,-0.008 23.07146,0 0.43648,5.3e-4 0.987523,-0.54526 0.996323,-1.10536 0.0088,-0.56008 -0.584362,-0.92972 -0.996323,-0.93172 -1.424959,-0.007 -2.453611,0.001 -4.40128,0 0,0 -0.238673,-6.3066 0.07803,-9.28005 0.07251,-0.68084 0.492992,-1.63556 0.492992,-1.63556 -2.547535,-0.52858 -4.542035,-2.14568 -6.311759,-4.17597 z m -5.419307,7.6295 c 2.693908,0.003 5.269666,2.5747 5.205883,7.46208 h -5.096846 c 4.857486,-2.8018 0.935451,-6.98478 -3.473172,-5.99912 0.988304,-0.96581 2.153462,-1.44672 3.300571,-1.46244 0.02122,-2.6e-4 0.04235,-5.3e-4 0.06356,-5.3e-4 z m 8.458398,1.33945 c 0.04127,-0.002 0.0844,0.001 0.129191,0.008 l 0.05994,6.11487 h -1.140497 c 0.04774,-2.16699 -0.328202,-6.07457 0.951362,-6.12263 z" />
      <path
         style="fill:#e03547;fill-opacity:1;stroke:none;stroke-width:1.00013;stroke-linecap:butt;stroke-linejoin:miter;stroke-miterlimit:4;stroke-dasharray:none;stroke-opacity:1"
         d="m 70.584783,113.62581 c 0.661553,0.4473 2.241869,-0.56064 2.455882,-2.15535 0.208624,-1.55455 0.206851,-3.64365 -0.06014,-3.69864 -0.511927,-0.10544 -4.489969,2.31711 -4.305361,2.7654 0.184608,0.44829 1.500521,2.81199 1.909619,3.08859 z"
         id="path18184"
         sodipodi:nodetypes="ssszs" />
      <path
         id="path20721"
         style="fill:#e03547;fill-opacity:1;stroke:none;stroke-width:1.00012;stroke-linecap:butt;stroke-linejoin:miter;stroke-miterlimit:4;stroke-dasharray:none;stroke-opacity:1"
         d="m 75.496684,107.54847 c -0.467937,5.3e-4 -1.013659,0.12793 -1.002007,0.65216 0.0853,3.83789 0.390774,6.24639 -3.157947,6.95926 1.239104,1.35489 2.661034,2.45118 4.380611,3.12539 l 0.492477,-1.44228 c 0.141883,-0.41533 6.74425,0.91711 6.024954,-6.28386 -1.824281,-0.012 -2.625167,0.27834 -3.473172,-0.13384 -1.22998,-0.59784 -1.875798,-1.74165 -2.789495,-2.83497 -0.121303,-0.0224 -0.292316,-0.042 -0.475421,-0.0419 z m 0.311091,2.78846 c 0.234937,-0.004 0.666481,0.097 0.674378,0.78342 0.01053,0.91517 -0.779266,0.80044 -0.784965,0.76584 -0.0057,-0.0346 -0.03566,-1.52807 -0.03566,-1.52807 0.01162,-0.007 0.06793,-0.0198 0.146245,-0.0212 z" />
    </g>
  </g>
</svg>
